<?xml version="1.0" standalone="no"?>
<!DOCTYPE svg PUBLIC "-//W3C//DTD SVG 20010904//EN"
 "http://www.w3.org/TR/2001/REC-SVG-20010904/DTD/svg10.dtd">
<svg version="1.0" xmlns="http://www.w3.org/2000/svg"
 width="626.000000pt" height="626.000000pt" viewBox="0 0 626.000000 626.000000"
 preserveAspectRatio="xMidYMid meet">
<metadata>
Created by potrace 1.11, written by Peter Selinger 2001-2013
</metadata>
<g transform="translate(0.000000,626.000000) scale(0.100000,-0.100000)"
fill="#000000" stroke="none">
<path d="M3445 5718 c-79 -46 -75 4 -75 -870 l0 -778 -1073 0 -1072 0 -168
-168 c-134 -135 -167 -173 -167 -195 l0 -27 1237 -2 1238 -3 0 -415 0 -415
-815 -5 -815 -5 -55 -27 c-182 -90 -240 -279 -159 -521 70 -210 336 -613 480
-727 45 -36 57 -40 105 -40 46 0 59 4 81 26 23 23 25 31 20 77 -21 184 -28
417 -18 531 17 191 41 241 135 273 46 16 97 18 546 18 l495 0 3 -775 2 -775
182 -182 c162 -163 186 -183 215 -183 l33 0 0 1589 0 1588 293 6 c391 7 521
30 726 128 121 57 218 126 295 210 74 79 108 131 161 241 149 309 138 725 -26
1001 -103 173 -313 331 -520 390 -169 49 -199 51 -734 54 l-510 3 -40 -22z
m1040 -362 c293 -83 449 -317 432 -646 -10 -199 -65 -330 -186 -450 -85 -84
-162 -127 -288 -162 -69 -19 -111 -22 -360 -26 l-283 -4 0 657 0 657 313 -5
c253 -3 323 -8 372 -21z"/>
</g>
</svg>
